<svg xmlns="http://www.w3.org/2000/svg" width="103.208" height="147.897" viewBox="0 0 103.208 147.897">
  <g id="Flat" transform="translate(-11 -0.814)">
    <g id="Color" transform="translate(11 0.814)">
      <g id="Grupo_5486" data-name="Grupo 5486">
        <g id="Grupo_5483" data-name="Grupo 5483" transform="translate(0 27.469)">
          <path id="Caminho_9637" data-name="Caminho 9637" d="M98.55,120.123H15l32.167-101.1a10.083,10.083,0,0,1,19.216,0Z" transform="translate(-5.171 -11.982)" fill="#f89c8d"/>
          <path id="Caminho_9638" data-name="Caminho 9638" d="M70.723,102.932A24.573,24.573,0,0,1,47.307,70.908L57.382,39.25,76.3,50.168l-9.92-31.132a10.075,10.075,0,0,0-19.216,0L15,120.134H98.55l-5.473-17.2Z" transform="translate(-5.171 -11.993)" fill="#f8664f"/>
          <g id="Grupo_5482" data-name="Grupo 5482" transform="translate(0 49.165)">
            <rect id="Ret창ngulo_2008" data-name="Ret창ngulo 2008" width="103.208" height="14.744" rx="3" transform="translate(0 56.519)" fill="#f9e109"/>
            <path id="Caminho_9639" data-name="Caminho 9639" d="M17.227,57.744h72.6L85.141,43H21.918Z" transform="translate(-1.925 -15.969)" fill="#f9e109"/>
            <path id="Caminho_9640" data-name="Caminho 9640" d="M71.439,32H25.418L20.727,46.744h55.4Z" transform="translate(3.176 -32)" fill="#f9e109"/>
          </g>
          <path id="Caminho_9641" data-name="Caminho 9641" d="M67.483,57.744H17.23L21.924,43H44.949A24.507,24.507,0,0,0,67.483,57.744Z" transform="translate(-1.921 33.196)" fill="#fcbc04"/>
          <path id="Caminho_9642" data-name="Caminho 9642" d="M42.06,32l-3.1,9.756a22.826,22.826,0,0,0-1.032,4.988H20.73L25.424,32Z" transform="translate(3.18 17.165)" fill="#fcbc04"/>
          <path id="Caminho_9643" data-name="Caminho 9643" d="M18.372,55a7.372,7.372,0,1,0,0,14.744h88.464a7.372,7.372,0,0,0,7.372-7.372H25.744A7.372,7.372,0,0,1,18.372,55Z" transform="translate(-11 50.684)" fill="#fcbc04"/>
        </g>
        <g id="Grupo_5485" data-name="Grupo 5485" transform="translate(22.776)">
          <path id="Caminho_9644" data-name="Caminho 9644" d="M24.573,0A24.573,24.573,0,0,1,49.147,24.573v4.915H0V24.573A24.573,24.573,0,0,1,24.573,0Z" transform="matrix(0.866, 0.5, -0.5, 0.866, 26.043, 0)" fill="#fcbc04"/>
          <path id="Caminho_9645" data-name="Caminho 9645" d="M47.873,7.709A24.451,24.451,0,0,0,37.565,4.514L33.8,22.276l4.256,2.457L49.529,8.76c-.548-.349-1.086-.722-1.656-1.052Z" transform="translate(-0.548 4.578)" fill="#e59730"/>
          <rect id="Ret창ngulo_2009" data-name="Ret창ngulo 2009" width="63.891" height="9.829" rx="2" transform="matrix(0.866, 0.5, -0.5, 0.866, 4.915, 21.85)" fill="#f9e109"/>
          <path id="Caminho_9646" data-name="Caminho 9646" d="M42.307,29.4l-8.512-4.915L42.836,4.447A2.457,2.457,0,0,1,46.3,3.329L54.37,8a2.457,2.457,0,0,1,.767,3.563Z" transform="translate(-0.555 2.372)" fill="#f9e109"/>
          <path id="Caminho_9647" data-name="Caminho 9647" d="M47.707,25.568a12.287,12.287,0,0,1-4.5-16.784L45.65,4.558a24.517,24.517,0,0,0-18.327,12.08l-2.457,4.256L67.43,45.468l2.457-4.256a24.527,24.527,0,0,0,1.121-2.19Z" transform="translate(-13.568 4.642)" fill="#e59730"/>
          <path id="Caminho_9648" data-name="Caminho 9648" d="M42.017,13.379,46.5,3.447l-.2-.118a2.457,2.457,0,0,0-3.467,1.118L33.8,24.482,42.312,29.4a18.74,18.74,0,0,1-.295-16.017Z" transform="translate(-0.548 2.372)" fill="#fcbc04"/>
          <path id="Caminho_9649" data-name="Caminho 9649" d="M28.373,11.1a4.915,4.915,0,1,0-4.915,8.512L70.278,46.64a4.915,4.915,0,0,0,6.713-1.8L30.171,17.811a4.915,4.915,0,0,1-1.8-6.713Z" transform="translate(-19.203 13.211)" fill="#fcbc04"/>
          <path id="Caminho_9650" data-name="Caminho 9650" d="M41.093,21.415a2.342,2.342,0,0,1-.491-.364,2.457,2.457,0,0,1-.059-3.472L47.586,10.3a2.457,2.457,0,1,1,3.534,3.416l-7.043,7.284A2.457,2.457,0,0,1,41.093,21.415Z" transform="translate(8.274 11.911)" fill="#f9e109"/>
          <path id="Caminho_9651" data-name="Caminho 9651" d="M32.428,17.873a2.457,2.457,0,0,1-1.133-2.8l2.787-9.741A2.457,2.457,0,1,1,38.808,6.68l-2.8,9.741a2.457,2.457,0,0,1-3.593,1.452Z" transform="translate(-4.337 3.167)" fill="#f9e109"/>
          <g id="Grupo_5484" data-name="Grupo 5484" transform="translate(26.855 6.718)">
            <path id="Caminho_9652" data-name="Caminho 9652" d="M42.671,18.805l7.043-7.284a2.443,2.443,0,0,1,1.72-.737,2.406,2.406,0,0,0-.371-.541,2.457,2.457,0,0,0-3.477.049l-7.043,7.284a2.457,2.457,0,0,0,.059,3.472,2.342,2.342,0,0,0,.491.364,2.4,2.4,0,0,0,1.256.3,2.42,2.42,0,0,1,.322-2.9Z" transform="translate(-18.581 5.196)" fill="#fcbc04"/>
            <path id="Caminho_9653" data-name="Caminho 9653" d="M33.416,16.294,36.2,6.553a2.42,2.42,0,0,1,2.384-1.737,2.457,2.457,0,0,0-4.512.509l-2.784,9.741a2.457,2.457,0,0,0,1.143,2.8,2.43,2.43,0,0,0,.555.246,2.317,2.317,0,0,0,.686.054,2.421,2.421,0,0,1-.258-1.875Z" transform="translate(-31.197 -3.548)" fill="#fcbc04"/>
          </g>
        </g>
      </g>
    </g>
  </g>
</svg>
